<svg width="232" height="102" viewBox="0 0 232 102" fill="none" xmlns="http://www.w3.org/2000/svg">
<path d="M186.096 36.0971L229.408 36.2899L229.128 99.0935L164 98.8036" stroke="white" stroke-width="5"/>
<path d="M46.3118 65.9964L2.99993 65.8036L3.27945 3.00002L68.4077 3.28989" stroke="white" stroke-width="5"/>
<path d="M39.8506 29.0225C39.167 29.0225 38.5566 29.1689 38.0195 29.4619C37.4824 29.7451 37.0234 30.1602 36.6426 30.707C36.2617 31.2539 35.9688 31.9229 35.7637 32.7139C35.5684 33.4951 35.4707 34.3838 35.4707 35.3799C35.4707 36.7275 35.6416 37.8604 35.9834 38.7783C36.3252 39.6963 36.8428 40.3896 37.5361 40.8584C38.2393 41.3271 39.1182 41.5615 40.1729 41.5615C41.1299 41.5615 42.0479 41.4297 42.9268 41.166C43.8154 40.9023 44.709 40.585 45.6074 40.2139V45.1064C44.6602 45.5264 43.6885 45.8291 42.6924 46.0146C41.7061 46.2002 40.6562 46.293 39.543 46.293C37.2188 46.293 35.3145 45.834 33.8301 44.916C32.3555 43.9883 31.2666 42.7041 30.5635 41.0635C29.8701 39.4229 29.5234 37.5186 29.5234 35.3506C29.5234 33.7295 29.748 32.2451 30.1973 30.8975C30.6562 29.5498 31.3252 28.3828 32.2041 27.3965C33.083 26.4004 34.167 25.6338 35.4561 25.0967C36.7549 24.5498 38.2393 24.2764 39.9092 24.2764C40.9443 24.2764 42.0332 24.3984 43.1758 24.6426C44.3281 24.877 45.4512 25.2578 46.5449 25.7852L44.7725 30.3408C43.9912 29.9697 43.2002 29.6572 42.3994 29.4033C41.5986 29.1494 40.749 29.0225 39.8506 29.0225ZM54.2969 46V24.584H71.8457V46H66.0156V29.3154H60.1123V46H54.2969ZM101.014 35.2627C101.014 36.9131 100.813 38.417 100.413 39.7744C100.022 41.1221 99.4072 42.2842 98.5674 43.2607C97.7275 44.2373 96.6484 44.9893 95.3301 45.5166C94.0117 46.0342 92.4346 46.293 90.5986 46.293C88.8018 46.293 87.2441 46.0342 85.9258 45.5166C84.6172 44.9893 83.5381 44.2422 82.6885 43.2754C81.8389 42.2988 81.209 41.1318 80.7988 39.7744C80.3887 38.417 80.1836 36.9033 80.1836 35.2334C80.1836 33.0068 80.5498 31.0732 81.2822 29.4326C82.0244 27.7822 83.167 26.5078 84.71 25.6094C86.2529 24.7012 88.2256 24.2471 90.6279 24.2471C93.0693 24.2471 95.0518 24.7012 96.5752 25.6094C98.1084 26.5176 99.2314 27.7969 99.9443 29.4473C100.657 31.0977 101.014 33.0361 101.014 35.2627ZM86.2773 35.2627C86.2773 36.5518 86.4238 37.6602 86.7168 38.5879C87.0098 39.5156 87.4736 40.2285 88.1084 40.7266C88.7432 41.2246 89.5732 41.4736 90.5986 41.4736C91.6631 41.4736 92.5078 41.2246 93.1328 40.7266C93.7676 40.2285 94.2217 39.5156 94.4951 38.5879C94.7783 37.6602 94.9199 36.5518 94.9199 35.2627C94.9199 33.3291 94.5977 31.8008 93.9531 30.6777C93.3086 29.5547 92.2002 28.9932 90.6279 28.9932C89.583 28.9932 88.7383 29.2471 88.0938 29.7549C87.459 30.2627 86.9951 30.9854 86.7021 31.9229C86.4189 32.8604 86.2773 33.9736 86.2773 35.2627ZM116.793 24.584C119.508 24.584 121.539 25.1748 122.887 26.3564C124.244 27.5381 124.923 29.2178 124.923 31.3955C124.923 32.3721 124.781 33.3096 124.498 34.208C124.225 35.1064 123.771 35.9072 123.136 36.6104C122.511 37.3135 121.676 37.8701 120.631 38.2803C119.596 38.6904 118.316 38.8955 116.793 38.8955H115.167V46H109.381V24.584H116.793ZM116.661 29.2568H115.167V34.1787H116.31C116.808 34.1787 117.271 34.0957 117.701 33.9297C118.131 33.7539 118.473 33.4756 118.727 33.0947C118.99 32.7041 119.122 32.1865 119.122 31.542C119.122 30.8682 118.922 30.3213 118.521 29.9014C118.121 29.4717 117.501 29.2568 116.661 29.2568ZM142.284 46H136.498V29.3154H131.269V24.584H147.499V29.3154H142.284V46Z" fill="white"/>
<path d="M62.7627 78H56.9766V61.3154H51.7471V56.584H67.9775V61.3154H62.7627V78ZM95.5781 67.2627C95.5781 68.9131 95.3779 70.417 94.9775 71.7744C94.5869 73.1221 93.9717 74.2842 93.1318 75.2607C92.292 76.2373 91.2129 76.9893 89.8945 77.5166C88.5762 78.0342 86.999 78.293 85.1631 78.293C83.3662 78.293 81.8086 78.0342 80.4902 77.5166C79.1816 76.9893 78.1025 76.2422 77.2529 75.2754C76.4033 74.2988 75.7734 73.1318 75.3633 71.7744C74.9531 70.417 74.748 68.9033 74.748 67.2334C74.748 65.0068 75.1143 63.0732 75.8467 61.4326C76.5889 59.7822 77.7314 58.5078 79.2744 57.6094C80.8174 56.7012 82.79 56.2471 85.1924 56.2471C87.6338 56.2471 89.6162 56.7012 91.1396 57.6094C92.6729 58.5176 93.7959 59.7969 94.5088 61.4473C95.2217 63.0977 95.5781 65.0361 95.5781 67.2627ZM80.8418 67.2627C80.8418 68.5518 80.9883 69.6602 81.2812 70.5879C81.5742 71.5156 82.0381 72.2285 82.6729 72.7266C83.3076 73.2246 84.1377 73.4736 85.1631 73.4736C86.2275 73.4736 87.0723 73.2246 87.6973 72.7266C88.332 72.2285 88.7861 71.5156 89.0596 70.5879C89.3428 69.6602 89.4844 68.5518 89.4844 67.2627C89.4844 65.3291 89.1621 63.8008 88.5176 62.6777C87.873 61.5547 86.7646 60.9932 85.1924 60.9932C84.1475 60.9932 83.3027 61.2471 82.6582 61.7549C82.0234 62.2627 81.5596 62.9854 81.2666 63.9229C80.9834 64.8604 80.8418 65.9736 80.8418 67.2627ZM103.945 56.584H111.416C114.512 56.584 116.719 57.043 118.037 57.9609C119.355 58.8789 120.015 60.1973 120.015 61.916C120.015 62.8535 119.844 63.6494 119.502 64.3037C119.17 64.958 118.745 65.4756 118.228 65.8564C117.72 66.2373 117.197 66.4961 116.66 66.6328V66.7793C117.246 66.9258 117.827 67.1699 118.403 67.5117C118.989 67.8438 119.473 68.3467 119.854 69.0205C120.244 69.6846 120.439 70.5879 120.439 71.7305C120.439 73.0293 120.107 74.1475 119.443 75.085C118.789 76.0225 117.852 76.7451 116.631 77.2529C115.41 77.751 113.96 78 112.28 78H103.945V56.584ZM109.731 64.8018H111.475C112.432 64.8018 113.105 64.6064 113.496 64.2158C113.887 63.8154 114.082 63.332 114.082 62.7656C114.082 62.1797 113.857 61.7354 113.408 61.4326C112.969 61.1201 112.285 60.9639 111.357 60.9639H109.731V64.8018ZM109.731 69.0352V73.5322H111.768C112.773 73.5322 113.477 73.3174 113.877 72.8877C114.277 72.4482 114.478 71.9014 114.478 71.2471C114.478 70.8662 114.39 70.5098 114.214 70.1777C114.048 69.8359 113.76 69.5625 113.35 69.3574C112.939 69.1426 112.373 69.0352 111.65 69.0352H109.731ZM141.8 78L140.745 73.9863H133.787L132.703 78H126.346L133.333 56.4961H141.053L148.128 78H141.8ZM139.544 69.2402L138.621 65.7246C138.523 65.3438 138.382 64.8018 138.196 64.0986C138.011 63.3857 137.825 62.6533 137.64 61.9014C137.464 61.1396 137.327 60.5146 137.229 60.0264C137.142 60.5146 137.015 61.1201 136.849 61.8428C136.692 62.5557 136.526 63.2637 136.351 63.9668C136.185 64.6699 136.038 65.2559 135.911 65.7246L134.988 69.2402H139.544ZM162.369 56.584C165.084 56.584 167.115 57.1748 168.463 58.3564C169.82 59.5381 170.499 61.2178 170.499 63.3955C170.499 64.3721 170.357 65.3096 170.074 66.208C169.801 67.1064 169.347 67.9072 168.712 68.6104C168.087 69.3135 167.252 69.8701 166.207 70.2803C165.172 70.6904 163.893 70.8955 162.369 70.8955H160.743V78H154.957V56.584H162.369ZM162.237 61.2568H160.743V66.1787H161.886C162.384 66.1787 162.848 66.0957 163.277 65.9297C163.707 65.7539 164.049 65.4756 164.303 65.0947C164.566 64.7041 164.698 64.1865 164.698 63.542C164.698 62.8682 164.498 62.3213 164.098 61.9014C163.697 61.4717 163.077 61.2568 162.237 61.2568ZM178.412 78V56.584H184.198V64.1426H186.117C187.953 64.1426 189.462 64.4209 190.644 64.9775C191.835 65.5342 192.719 66.3105 193.295 67.3066C193.871 68.293 194.159 69.4355 194.159 70.7344C194.159 72.9902 193.397 74.7676 191.874 76.0664C190.351 77.3555 188.231 78 185.517 78H178.412ZM184.198 73.415H185.604C186.552 73.415 187.25 73.21 187.699 72.7998C188.148 72.3799 188.373 71.7842 188.373 71.0127C188.373 70.5146 188.256 70.0996 188.021 69.7676C187.787 69.4258 187.47 69.167 187.069 68.9912C186.679 68.8154 186.229 68.7275 185.722 68.7275H184.198V73.415ZM195.653 78V56.584H201.483V78H195.653Z" fill="white"/>
</svg>
