<svg width="35" height="13" viewBox="0 0 35 13" fill="none" xmlns="http://www.w3.org/2000/svg">
<path d="M4.70534 0.377543C3.87573 1.33448 3.60338 1.65596 3.16798 2.20545C1.99256 3.68198 1.22746 4.89872 0.71322 6.1005C-0.100254 8.00504 -0.220304 9.68716 0.365612 10.9058C0.672009 11.5412 1.20955 12.1188 1.82413 12.4701C2.24162 12.7094 2.84366 12.8981 3.43675 12.9748C3.75389 13.0159 4.64979 13.0047 5.0404 12.9561C6.21761 12.8066 7.43603 12.4645 8.82108 11.8963C9.37833 11.6683 9.58259 11.5767 19.3479 7.21818C31.541 1.77558 35.0619 0.199986 34.9992 0.214938C34.9383 0.228021 34.7053 0.293437 22.5821 3.65394C14.5064 5.89304 11.3726 6.76214 9.89616 7.16771C9.19378 7.36209 8.72612 7.45554 8.05061 7.53591C7.93056 7.55086 7.64029 7.56021 7.30702 7.55834C6.70498 7.55834 6.46308 7.53217 6.04918 7.4219C5.47401 7.27051 5.07265 7.04062 4.66771 6.63504C4.10329 6.06873 3.81123 5.39588 3.74135 4.50435C3.6876 3.82963 3.82556 2.92689 4.10867 2.07462C4.31831 1.45036 4.691 0.620517 5.01711 0.0598087C5.03682 0.0280352 5.04757 0 5.04219 0C5.03861 0 4.88631 0.170081 4.70534 0.377543Z" fill="black"/>
</svg>
