<svg width="0" height="0" class="hidden">
  <symbol  xmlns="http://www.w3.org/2000/svg" viewBox="0 0 27 27" id="search">
    <path d="M10.6476 0.00263034C10.0424 0.0332349 9.59573 0.0819754 9.09285 0.171522C7.55947 0.446963 6.06435 1.06699 4.78072 1.96359C2.70172 3.41334 1.1796 5.52051 0.460723 7.94167C-0.264903 10.3912 -0.129903 13.0526 0.840973 15.4114C1.31572 16.5665 1.9671 17.607 2.82097 18.5796C3.00997 18.7938 3.52972 19.313 3.75135 19.5079C5.33872 20.9055 7.20285 21.7965 9.25823 22.1388C9.82523 22.2329 10.2584 22.2691 10.9007 22.2771C11.5386 22.285 11.911 22.2657 12.4645 22.1943C14.0519 21.9926 15.6246 21.4224 16.9577 20.5666L17.1152 20.4657L20.3159 23.6905C22.612 26.0017 23.5311 26.921 23.5671 26.9392C23.8776 27.0944 24.4502 26.9119 24.9891 26.4835C25.1376 26.3645 26.2874 25.2128 26.4449 25.0235C26.5967 24.841 26.725 24.6472 26.8184 24.4568C27.0029 24.0816 27.0456 23.7767 26.9477 23.5511C26.923 23.4933 26.608 23.1737 23.6976 20.2402C21.9246 18.4538 20.4745 16.9893 20.4745 16.9847C20.4745 16.9802 20.5094 16.919 20.551 16.8487C21.3587 15.4999 21.883 13.913 22.0484 12.3113C22.0922 11.8817 22.1001 11.7117 22.1001 11.1268C22.1001 10.5635 22.0945 10.4308 22.054 10.0216C21.6816 6.22102 19.3697 2.85792 15.9576 1.152C14.6414 0.49457 13.288 0.128449 11.7614 0.0184994C11.5937 0.00603085 10.7972 -0.00530416 10.6476 0.00263034ZM11.542 3.71371C13.207 3.82933 14.7404 4.47996 15.9801 5.59646C16.1545 5.75402 16.492 6.09747 16.6337 6.26409C17.9714 7.82832 18.6036 9.84595 18.3977 11.8919C18.2391 13.4607 17.5967 14.9252 16.5471 16.1085C16.3907 16.2842 16.0487 16.6243 15.8845 16.7671C15.1352 17.4177 14.3151 17.8881 13.387 18.1999C11.8615 18.7133 10.2246 18.7111 8.69685 18.1942C6.5211 17.4574 4.79647 15.7243 4.05622 13.5332C3.86385 12.9608 3.74685 12.4043 3.68722 11.7672C3.6681 11.5553 3.66697 10.7108 3.68722 10.5091C3.73335 10.0375 3.79972 9.64986 3.9021 9.25087C4.61535 6.49419 6.8721 4.36888 9.65198 3.83386C9.97148 3.77266 10.3146 3.72845 10.6195 3.71031C10.7714 3.70124 11.3946 3.70351 11.542 3.71371Z"></path>
  </symbol>
</svg>