<svg width="68" height="68" viewBox="0 0 68 68" fill="none" xmlns="http://www.w3.org/2000/svg">
<path d="M29.8763 6.01398C31.8624 3.11739 36.1376 3.11739 38.1237 6.01398L41.9958 11.6611C43.0007 13.1265 44.7077 13.9486 46.4799 13.8205L53.3093 13.327C56.8123 13.0738 59.4777 16.4162 58.4514 19.775L56.4506 26.3233C55.9314 28.0226 56.353 29.8698 57.5581 31.1755L62.202 36.2072C64.584 38.7881 63.6327 42.956 60.3667 44.2478L53.9996 46.7662C52.3473 47.4198 51.166 48.9011 50.8965 50.6574L49.858 57.4253C49.3253 60.8968 45.4736 62.7517 42.4274 61.0037L36.4885 57.5959C34.9473 56.7116 33.0527 56.7116 31.5115 57.5959L25.5726 61.0037C22.5264 62.7517 18.6747 60.8968 18.142 57.4253L17.1035 50.6574C16.834 48.9011 15.6527 47.4198 14.0004 46.7662L7.63326 44.2478C4.36734 42.956 3.41604 38.7881 5.79804 36.2072L10.4419 31.1755C11.647 29.8698 12.0686 28.0226 11.5494 26.3233L9.54856 19.775C8.52227 16.4162 11.1877 13.0738 14.6907 13.327L21.5201 13.8205C23.2923 13.9486 24.9993 13.1265 26.0042 11.6611L29.8763 6.01398Z" fill="#EFF41F"/>
<path d="M25.39 44C24.93 44 24.7 43.8 24.7 43.4C24.7 43.28 24.74 43.17 24.82 43.07L39.61 23.57C39.75 23.39 39.89 23.25 40.03 23.15C40.19 23.05 40.41 23 40.69 23H43.33C43.79 23 44.02 23.2 44.02 23.6C44.02 23.72 43.98 23.83 43.9 23.93L29.08 43.43C28.94 43.61 28.8 43.75 28.66 43.85C28.52 43.95 28.31 44 28.03 44H25.39ZM41.08 44.15C39.7 44.15 38.58 43.79 37.72 43.07C36.88 42.35 36.42 41.39 36.34 40.19C36.3 39.67 36.28 39.21 36.28 38.81C36.3 38.39 36.32 37.9 36.34 37.34C36.42 36.12 36.86 35.15 37.66 34.43C38.48 33.71 39.62 33.35 41.08 33.35C42.54 33.35 43.67 33.71 44.47 34.43C45.29 35.15 45.73 36.12 45.79 37.34C45.83 37.9 45.85 38.39 45.85 38.81C45.85 39.21 45.83 39.67 45.79 40.19C45.73 41.39 45.27 42.35 44.41 43.07C43.57 43.79 42.46 44.15 41.08 44.15ZM41.08 41.21C41.34 41.21 41.54 41.16 41.68 41.06C41.82 40.94 41.93 40.79 42.01 40.61C42.09 40.41 42.13 40.21 42.13 40.01C42.17 39.59 42.19 39.17 42.19 38.75C42.19 38.33 42.17 37.92 42.13 37.52C42.11 37.2 42.02 36.92 41.86 36.68C41.7 36.44 41.44 36.32 41.08 36.32C40.7 36.32 40.43 36.44 40.27 36.68C40.11 36.92 40.02 37.2 40 37.52C39.98 37.92 39.97 38.33 39.97 38.75C39.97 39.17 39.98 39.59 40 40.01C40.02 40.21 40.06 40.41 40.12 40.61C40.2 40.79 40.31 40.94 40.45 41.06C40.61 41.16 40.82 41.21 41.08 41.21ZM27.73 33.62C26.35 33.62 25.23 33.27 24.37 32.57C23.53 31.85 23.07 30.89 22.99 29.69C22.95 29.17 22.93 28.71 22.93 28.31C22.95 27.89 22.97 27.4 22.99 26.84C23.07 25.62 23.51 24.65 24.31 23.93C25.13 23.21 26.27 22.85 27.73 22.85C29.19 22.85 30.32 23.21 31.12 23.93C31.94 24.65 32.39 25.62 32.47 26.84C32.51 27.4 32.53 27.89 32.53 28.31C32.53 28.71 32.51 29.17 32.47 29.69C32.39 30.89 31.92 31.85 31.06 32.57C30.22 33.27 29.11 33.62 27.73 33.62ZM27.73 30.71C27.99 30.71 28.19 30.66 28.33 30.56C28.47 30.44 28.58 30.29 28.66 30.11C28.74 29.91 28.78 29.71 28.78 29.51C28.82 29.09 28.84 28.67 28.84 28.25C28.84 27.83 28.82 27.42 28.78 27.02C28.76 26.7 28.67 26.42 28.51 26.18C28.37 25.94 28.11 25.82 27.73 25.82C27.35 25.82 27.08 25.94 26.92 26.18C26.76 26.42 26.67 26.7 26.65 27.02C26.63 27.42 26.62 27.83 26.62 28.25C26.62 28.67 26.63 29.09 26.65 29.51C26.67 29.71 26.71 29.91 26.77 30.11C26.85 30.29 26.97 30.44 27.13 30.56C27.29 30.66 27.49 30.71 27.73 30.71Z" fill="black"/>
</svg>
